PathFileType	4	(X/Y/Z)	C:/Users/opensim2020/Desktop/walking_exp_matlab/subject06_walking19_straight_03.trc	
DataRate	CameraRate	NumFrames	NumMarkers	Units	OrigDataRate	OrigDataStartFrame	OrigNumFrames	
100.00	100.00	6	49	mm	100.00	3311	358	
Frame#	Time	LFHD			RFHD			LBHD			RBHD			C7			T10			CLAV			STRN			RBAK			LSHO			LUPA			LELB			LFRM			LWRA			LWRB			LFIN			RSHO			RUPA			RELB			RFRM			RWRA			RWRB			RFIN			LASI			RASI			LPSI			RPSI			LTHI			LKNE			LTIB			LANK			LHEE			LTOE			RTHI			RKNE			RTIB			RANK			RHEE			RTOE			*39			*40			*41			*42			*43			*44			*45			*46			*47			*48			
		X1	Y1	Z1	X2	Y2	Z2	X3	Y3	Z3	X4	Y4	Z4	X5	Y5	Z5	X6	Y6	Z6	X7	Y7	Z7	X8	Y8	Z8	X9	Y9	Z9	X10	Y10	Z10	X11	Y11	Z11	X12	Y12	Z12	X13	Y13	Z13	X14	Y14	Z14	X15	Y15	Z15	X16	Y16	Z16	X17	Y17	Z17	X18	Y18	Z18	X19	Y19	Z19	X20	Y20	Z20	X21	Y21	Z21	X22	Y22	Z22	X23	Y23	Z23	X24	Y24	Z24	X25	Y25	Z25	X26	Y26	Z26	X27	Y27	Z27	X28	Y28	Z28	X29	Y29	Z29	X30	Y30	Z30	X31	Y31	Z31	X32	Y32	Z32	X33	Y33	Z33	X34	Y34	Z34	X35	Y35	Z35	X36	Y36	Z36	X37	Y37	Z37	X38	Y38	Z38	X39	Y39	Z39	X40	Y40	Z40	X41	Y41	Z41	X42	Y42	Z42	X43	Y43	Z43	X44	Y44	Z44	X45	Y45	Z45	X46	Y46	Z46	X47	Y47	Z47	X48	Y48	Z48	X49	Y49	Z49	

45	0.440	1352.61682	-835.89178	1668.33813	1483.70276	-839.82214	1661.77380	1349.68933	-969.21759	1611.89551	1478.94360	-971.02429	1610.09607	1400.41626	-970.66260	1460.01538	1406.02686	-1014.16248	1131.97351	1418.09814	-863.95502	1379.91064	1417.49585	-829.16901	1202.53687	1470.14502	-1057.00757	1291.54285	1250.49902	-887.99097	1413.39673	1175.60742	-858.79291	1213.17651	1160.93701	-843.78955	1101.50488	1149.19495	-777.16620	965.16833	1204.02246	-694.31506	873.87457	1160.20752	-744.97772	850.50275	1167.59497	-681.32440	786.54718	1570.17932	-929.85297	1413.71716	1653.77905	-984.97827	1217.94775	1666.34851	-981.22986	1095.63733	1684.68994	-967.61993	976.30609	1658.52148	-903.62097	838.09045	1693.34998	-961.38080	838.54633	1699.01062	-923.58984	763.15155	1319.28967	-834.17639	963.18604	1540.13379	-855.54474	975.60132	1331.95923	-991.38464	997.36365	1500.11267	-1003.49213	1001.59827	1264.37671	-909.11823	650.67108	1289.50220	-921.60223	488.01212	1297.41956	-989.87836	238.96895	1341.70325	-1023.80005	70.24231	1383.11987	-1070.01013	58.56070	1357.43066	-883.00806	42.37219	1604.26648	-854.81799	650.47040	1586.53674	-813.63000	530.56140	1587.23621	-908.09778	286.32184	1550.27490	-958.71600	105.54816	1499.30383	-992.34863	81.96396	1585.38428	-820.57745	50.05105	1406.85303	-939.32568	1706.98779																											 
46	0.450	1352.68896	-829.53821	1667.78467	1483.84204	-833.37970	1661.14832	1349.81628	-962.95087	1611.67041	1479.05420	-964.66284	1609.76379	1400.24463	-964.76874	1459.68762	1405.48730	-1008.78619	1131.69043	1418.14697	-858.24609	1379.38733	1417.40027	-823.76270	1201.99280	1469.45923	-1051.54456	1291.32983	1250.48120	-881.77069	1413.20825	1175.68616	-851.95825	1213.16504	1161.21045	-836.15063	1101.45911	1150.20386	-767.05621	966.15759	1205.11560	-682.08270	877.36328	1162.60889	-732.89606	852.10388	1169.79016	-667.76135	789.80981	1570.02344	-924.58417	1413.20374	1653.32617	-980.61890	1217.54077	1665.83643	-977.43457	1095.26196	1684.34265	-964.13721	975.89746	1658.50977	-900.37976	837.44012	1692.99121	-958.31982	838.00885	1698.90894	-920.79816	762.56567	1319.31860	-828.77826	962.56726	1539.67407	-850.97235	975.32397	1331.55505	-985.91394	996.86066	1499.73218	-998.26434	1001.33447	1264.76477	-904.81946	650.09082	1289.68591	-918.34064	487.43057	1297.64636	-988.23694	238.78345	1341.76782	-1023.54980	70.31041	1383.12146	-1069.95569	58.77602	1357.46326	-882.95355	42.34367	1604.36719	-848.75452	650.66815	1586.25513	-806.23895	531.12415	1586.42896	-892.58807	283.84058	1549.16504	-936.87994	101.45333	1498.12329	-969.80225	77.16539	1583.73962	-796.94867	49.76190	1407.00684	-932.75055	1706.60474																											 
47	0.460	1352.82800	-823.03339	1667.12048	1483.95105	-826.83997	1660.40564	1349.95178	-956.46997	1611.29309	1479.23145	-958.28534	1609.32031	1400.15662	-958.79266	1459.23889	1404.98779	-1003.21539	1131.27783	1418.13525	-852.50562	1378.72583	1417.28540	-818.35278	1201.35388	1468.87268	-1046.04834	1290.98669	1250.52405	-875.65521	1412.93872	1175.93811	-845.12360	1213.03723	1161.55664	-828.35950	1101.37244	1151.32898	-757.32935	967.13599	1206.44104	-670.09760	880.83594	1165.17432	-720.98535	853.79706	1172.18835	-654.48273	793.09607	1569.96960	-919.20404	1412.61646	1652.93042	-976.13800	1217.07715	1665.35254	-974.15814	1095.06055	1684.06726	-960.57617	975.40594	1658.54419	-897.10217	836.75104	1692.77100	-955.16382	837.48859	1698.75525	-917.91785	761.84644	1319.34863	-823.04590	961.92169	1539.86328	-845.07770	975.22504	1331.25110	-980.33759	996.31726	1499.39014	-992.84259	1000.97076	1265.01160	-900.52002	649.46204	1289.89783	-914.99945	486.81125	1297.71729	-986.53534	238.60399	1341.85107	-1023.36139	70.41085	1383.16895	-1069.80139	58.93538	1357.60156	-882.81256	42.25225	1604.53577	-842.61969	650.74396	1586.13159	-799.03815	531.51459	1585.93005	-877.54266	281.47150	1548.14673	-914.93103	97.64983	1496.99231	-947.18665	72.78903	1582.14075	-773.45856	49.60181	1407.20398	-925.96851	1706.00732																											 
48	0.470	1353.11108	-816.38513	1666.50513	1484.16125	-820.29633	1659.62952	1350.09937	-949.99866	1610.84900	1479.39661	-951.83752	1608.77917	1400.11609	-952.77020	1458.75659	1404.57739	-997.67261	1130.85339	1418.20007	-846.62012	1378.08154	1417.25537	-812.82135	1200.71033	1468.30981	-1040.41187	1290.61340	1250.61890	-869.46661	1412.58020	1176.25061	-838.44025	1212.75818	1162.02344	-820.92773	1101.19495	1152.61414	-748.11285	967.93335	1207.91797	-658.56250	884.17920	1167.84656	-709.35858	855.46783	1174.83765	-641.33014	796.28796	1569.89246	-913.65118	1411.92786	1652.57642	-971.59326	1216.59521	1665.05432	-970.18158	1094.56702	1683.81567	-956.91400	974.82391	1658.65222	-893.73584	836.04083	1692.57324	-951.98486	836.91864	1698.80957	-915.05469	761.25354	1319.13647	-817.73883	961.02002	1539.73425	-839.49194	975.14850	1330.98621	-974.67877	995.73853	1499.09363	-987.26880	1000.52618	1265.25098	-896.14349	648.79028	1290.11401	-911.65289	486.11243	1297.87854	-984.93115	238.39598	1341.90784	-1023.13184	70.47533	1383.32861	-1069.77844	59.31871	1357.61743	-882.75909	42.21273	1604.80676	-836.60181	650.67615	1586.03772	-792.04596	531.70654	1585.19458	-862.12000	279.11328	1547.10437	-893.04742	94.15502	1495.86072	-924.58124	68.75372	1580.36414	-750.13275	49.51171	1407.46533	-919.35699	1705.47778																											 
49	0.480	1353.37695	-809.91425	1665.69153	1484.43750	-813.81183	1658.76855	1350.28015	-943.50983	1610.33789	1479.64221	-945.46509	1608.19104	1400.10486	-946.80713	1458.22998	1404.23474	-992.06274	1130.35974	1418.42554	-840.63965	1377.41479	1417.28430	-807.15491	1199.99548	1467.86365	-1034.76355	1290.23242	1250.74402	-863.21289	1412.10120	1176.57593	-831.83643	1212.33276	1162.58459	-813.65021	1100.77979	1153.98645	-738.47845	968.71283	1209.76172	-647.27393	887.45349	1170.52588	-697.65210	857.04791	1177.66077	-628.38776	799.51550	1569.93481	-907.99219	1411.19824	1652.26379	-967.03802	1216.06213	1664.98694	-965.35828	1093.75354	1683.58643	-953.49310	974.32043	1658.76477	-890.43561	835.29138	1692.39551	-948.84192	836.35071	1698.73145	-912.08209	760.48865	1319.02271	-812.16553	960.26392	1539.45447	-834.12262	974.80066	1330.75476	-969.08893	995.13489	1498.86353	-981.69592	1000.06891	1265.49915	-891.65845	648.04822	1290.28992	-908.18506	485.37207	1298.18750	-983.43787	238.30612	1341.99646	-1022.95026	70.53362	1383.50134	-1069.84875	59.64747	1357.64441	-882.66797	42.14901	1605.35278	-830.41943	650.52661	1585.99316	-785.31885	531.75732	1584.61011	-847.04950	276.93634	1546.16663	-871.18005	91.06214	1495.01245	-902.54462	65.58511	1577.82263	-726.50629	49.48052	1407.78223	-912.72296	1704.86829																											 
50	0.490	1353.73535	-803.34460	1664.93555	1484.81494	-807.34137	1657.84595	1350.47742	-936.92908	1609.73511	1479.87122	-939.03802	1607.51392	1400.16150	-940.71948	1457.62085	1404.00562	-986.32410	1129.81702	1418.66370	-834.61047	1376.71741	1417.28857	-801.42236	1199.19885	1467.53430	-1028.97302	1289.72375	1250.91101	-856.94550	1411.50354	1176.98145	-825.29797	1211.78528	1163.21997	-806.58057	1100.27771	1155.48474	-728.97235	969.43951	1211.70251	-636.31097	890.62073	1173.21973	-686.24463	858.66345	1180.67566	-615.68048	802.71899	1570.04248	-902.21527	1410.43591	1652.01111	-962.28772	1215.39221	1664.67505	-961.86578	1093.34424	1683.47070	-949.72601	973.68695	1658.91553	-887.01312	834.46570	1692.31018	-945.52673	835.68188	1698.85339	-909.09406	759.73431	1318.91443	-806.48395	959.54694	1539.56177	-827.87091	974.43762	1330.61768	-963.42719	994.46198	1498.74536	-975.85406	999.54626	1265.74634	-887.15424	647.26776	1290.52844	-904.56879	484.60507	1298.18640	-981.61664	238.03212	1342.05981	-1022.67371	70.60512	1383.54333	-1069.68274	59.91596	1357.63367	-882.52838	42.02942	1605.87939	-823.70557	650.12048	1585.94824	-778.78491	531.65491	1584.08960	-832.06622	274.86777	1545.39526	-849.53394	88.31726	1494.25171	-880.40912	62.64270	1575.81531	-703.34509	49.78068	1408.11304	-906.11542	1704.20142																											 
